<?xml version="1.0" standalone="no"?>
<!DOCTYPE svg PUBLIC "-//W3C//DTD SVG 20010904//EN"
 "http://www.w3.org/TR/2001/REC-SVG-20010904/DTD/svg10.dtd">
<svg version="1.0" xmlns="http://www.w3.org/2000/svg"
 width="626.000000pt" height="626.000000pt" viewBox="0 0 626.000000 626.000000"
 preserveAspectRatio="xMidYMid meet">

<g transform="translate(0.000000,626.000000) scale(0.100000,-0.100000)"
fill="#000000" stroke="none">
<path d="M1243 4345 c4 -102 9 -135 36 -215 114 -337 358 -526 771 -595 58
-10 109 -22 115 -27 12 -11 -5 -10 -177 11 -102 12 -149 14 -151 7 -3 -7 -11
-5 -23 5 -10 10 -75 33 -144 54 -225 66 -384 157 -507 289 -72 78 -74 72 -18
-49 81 -176 215 -297 409 -370 100 -38 284 -81 448 -105 78 -12 144 -23 147
-25 2 -3 -37 -5 -88 -5 -89 0 -91 -1 -81 -20 14 -25 23 -25 -185 5 -220 32
-337 64 -457 124 l-98 49 29 -42 c61 -88 175 -172 288 -211 97 -34 168 -43
420 -57 122 -6 220 -15 217 -20 -3 -4 -23 -8 -46 -8 -33 0 -38 -2 -29 -14 18
-22 -16 -26 -239 -26 -187 1 -266 8 -385 35 l-30 7 35 -31 c47 -42 124 -85
188 -106 70 -23 210 -22 382 0 124 17 134 17 167 1 20 -9 32 -21 27 -25 -30
-27 -300 -72 -439 -72 -63 0 -115 -3 -115 -5 0 -3 35 -22 78 -42 76 -37 78
-37 202 -37 121 0 129 1 247 43 67 23 131 42 142 42 45 0 27 -21 -51 -59 -114
-55 -187 -80 -297 -100 l-94 -17 54 -17 c138 -45 228 -32 428 63 171 81 183
66 31 -39 -67 -46 -128 -78 -195 -101 l-50 -18 30 -12 c17 -7 61 -10 101 -8
86 4 183 49 288 133 37 30 72 52 77 49 23 -14 -131 -181 -204 -222 l-32 -17
35 -3 c95 -9 179 31 250 120 l40 51 0 -44 c0 -43 -44 -138 -71 -154 -18 -12
41 -65 73 -65 32 0 70 45 118 140 32 63 70 181 70 216 0 29 -133 178 -242 270
-78 65 -78 66 -57 83 21 17 21 18 -42 40 -84 30 -147 71 -204 132 -56 60 -84
119 -99 212 l-12 69 -89 33 c-279 100 -467 265 -611 537 -51 98 -54 101 -48
58 25 -193 118 -379 249 -498 31 -29 52 -52 47 -52 -5 0 -46 22 -91 50 -249
149 -412 355 -516 650 l-26 75 4 -120z"/>
<path d="M5002 4411 c-18 -80 -85 -223 -148 -318 -79 -120 -245 -284 -349
-345 -117 -69 -126 -69 -53 3 124 121 205 289 232 474 5 37 2 33 -37 -40 -110
-211 -287 -386 -494 -489 -67 -34 -184 -76 -210 -76 -8 0 -13 -13 -13 -39 0
-61 -37 -165 -78 -219 -59 -79 -123 -125 -232 -165 l-63 -24 24 -17 24 -16
-35 -26 c-61 -46 -290 -287 -290 -306 0 -37 61 -205 95 -263 64 -108 96 -121
150 -65 l28 29 -31 35 c-35 40 -55 97 -50 140 l3 28 34 -46 c68 -91 187 -146
271 -126 l25 6 -25 13 c-56 30 -133 97 -176 155 -25 33 -41 62 -35 64 6 2 57
-29 113 -69 55 -39 123 -80 150 -91 50 -18 150 -23 198 -8 l25 7 -25 10 c-14
6 -43 18 -64 27 -22 9 -76 41 -120 71 -175 118 -181 143 -16 60 190 -95 304
-113 450 -69 45 14 51 18 35 25 -11 4 -34 8 -51 8 -60 2 -188 41 -295 92 -60
29 -106 56 -103 60 9 15 51 10 106 -12 219 -86 396 -90 539 -13 l53 29 -145 6
c-131 5 -248 24 -382 60 -39 10 -40 12 -22 25 35 26 61 26 217 4 218 -32 328
-18 457 57 56 32 123 88 95 80 -76 -24 -215 -37 -388 -37 -220 0 -272 6 -255
26 9 11 5 14 -25 14 -20 0 -36 4 -36 8 0 4 114 16 253 25 138 10 280 24 315
32 105 25 198 79 285 165 42 43 77 83 77 89 0 6 -24 -2 -52 -18 -112 -62 -297
-112 -518 -140 -47 -6 -103 -14 -124 -17 -36 -6 -38 -5 -33 15 5 20 2 21 -101
22 -119 2 -115 3 106 34 144 21 379 78 457 112 180 80 318 217 386 385 16 38
29 72 29 75 0 3 -39 -31 -86 -76 -149 -141 -271 -209 -479 -265 -55 -15 -111
-32 -125 -38 -14 -5 -45 -12 -70 -14 -25 -2 -101 -11 -169 -19 -68 -9 -126
-13 -129 -11 -7 8 7 11 138 36 253 47 421 129 554 270 113 120 197 296 225
470 13 78 14 180 3 180 -5 0 -14 -22 -20 -49z"/>
<path d="M2972 3443 c-10 -4 -10 -8 -1 -19 9 -12 6 -13 -19 -8 -17 4 -43 4
-56 0 -27 -7 -56 -51 -56 -86 0 -20 1 -20 22 -6 57 40 133 6 144 -65 8 -46 -5
-74 -65 -141 -28 -31 -51 -58 -51 -61 0 -2 15 -10 33 -18 47 -19 137 -76 173
-111 l32 -30 57 46 c31 26 88 62 127 82 l70 35 -52 55 c-28 29 -62 79 -76 109
-29 67 -29 69 -4 62 24 -6 25 2 6 48 -18 42 -59 82 -105 101 -32 13 -151 18
-179 7z"/>
<path d="M3057 2535 c-95 -103 -208 -198 -410 -346 l-156 -114 37 -19 c58 -31
153 -27 222 9 30 15 72 41 93 57 20 16 37 26 37 22 0 -20 -89 -120 -141 -159
-59 -43 -59 -44 -34 -51 43 -11 103 2 140 30 21 16 48 54 70 99 19 39 35 65
35 57 1 -99 43 -276 78 -330 l16 -25 6 25 c4 14 22 141 41 283 18 141 36 257
39 257 3 0 20 -109 39 -242 43 -320 42 -318 51 -318 8 0 40 70 60 135 8 22 19
81 25 130 l11 90 32 -60 c40 -76 49 -88 92 -114 36 -21 103 -28 128 -12 9 5 2
15 -25 33 -48 32 -132 117 -157 159 l-19 32 55 -41 c106 -81 191 -104 281 -78
31 9 58 20 61 25 3 4 -50 48 -117 96 -235 170 -368 283 -457 386 l-57 66 -76
-82z"/>
</g>
</svg>
